<svg width="292" height="114" viewBox="0 0 292 114" fill="none" xmlns="http://www.w3.org/2000/svg">
<path d="M36.096 91.52C30.8053 91.52 26.1547 90.1973 22.144 87.552C18.4268 85.047 15.8958 81.7384 14.5508 77.6264C14.4371 77.2789 14.7008 76.928 15.0665 76.928C15.37 76.928 15.616 77.174 15.616 77.4775V83.584C15.616 87.26 12.636 90.24 8.96 90.24H7.808C3.49576 90.24 0 86.7442 0 82.432V8C0 3.58172 3.58172 0 8 0C12.4183 0 16 3.58172 16 8V39.6742C16 40.0309 15.7109 40.32 15.3542 40.32C14.9151 40.32 14.6043 39.891 14.7595 39.4802C16.1941 35.6851 18.741 32.5943 22.4 30.208C26.3253 27.648 30.8907 26.368 36.096 26.368C41.6427 26.368 46.464 27.6907 50.56 30.336C54.656 32.9813 57.856 36.736 60.16 41.6C62.464 46.3787 63.616 52.1387 63.616 58.88C63.616 65.536 62.464 71.3387 60.16 76.288C57.856 81.152 54.6133 84.9067 50.432 87.552C46.336 90.1973 41.5573 91.52 36.096 91.52ZM31.616 79.36C36.3947 79.36 40.2347 77.6533 43.136 74.24C46.0373 70.7413 47.488 65.6213 47.488 58.88C47.488 52.0533 46.0373 46.976 43.136 43.648C40.2347 40.2347 36.3947 38.528 31.616 38.528C26.8373 38.528 22.9973 40.2347 20.096 43.648C17.1947 46.976 15.744 52.0533 15.744 58.88C15.744 65.6213 17.1947 70.7413 20.096 74.24C22.9973 77.6533 26.8373 79.36 31.616 79.36Z" fill="url(#paint0_linear_27_18)"/>
<path d="M90.5776 91.5265C86.0549 91.5265 82.0016 90.6732 78.4176 88.9665C74.9189 87.1745 72.1456 84.7852 70.0976 81.7985C68.1349 78.8119 67.1536 75.4412 67.1536 71.6865C67.1536 67.0785 68.3483 63.4518 70.7376 60.8065C73.1269 58.0758 77.0096 56.1132 82.3856 54.9185C87.7616 53.7238 94.9723 53.1265 104.018 53.1265H105.81C108.355 53.1265 110.418 55.1896 110.418 57.7345C110.418 60.2794 108.355 62.3425 105.81 62.3425H104.146C100.135 62.3425 96.7643 62.5132 94.0336 62.8545C91.3029 63.1105 89.0843 63.5798 87.3776 64.2625C85.7563 64.8598 84.5616 65.7132 83.7936 66.8225C83.1109 67.9318 82.7696 69.2972 82.7696 70.9185C82.7696 73.7345 83.7509 76.0385 85.7136 77.8305C87.6763 79.6225 90.4069 80.5185 93.9056 80.5185C96.7216 80.5185 99.1963 79.8785 101.33 78.5985C103.548 77.2332 105.298 75.3985 106.578 73.0945C107.858 70.7905 108.498 68.1452 108.498 65.1585V50.4385C108.498 46.1718 107.559 43.0998 105.682 41.2225C103.804 39.3452 100.647 38.4065 96.2096 38.4065C92.7109 38.4065 89.1269 38.9612 85.4576 40.0705C83.8051 40.5317 82.144 41.114 80.4741 41.8174C77.1067 43.2361 73.0549 41.9436 71.6298 38.5789C70.5137 35.9436 71.3859 32.8429 73.9624 31.5968C75.0811 31.0558 76.2675 30.5523 77.5216 30.0865C80.5936 28.8918 83.7936 27.9958 87.1216 27.3985C90.5349 26.7158 93.7349 26.3745 96.7216 26.3745C102.866 26.3745 107.9 27.3132 111.826 29.1905C115.836 31.0678 118.823 33.9265 120.786 37.7665C122.748 41.5212 123.73 46.3852 123.73 52.3585V82.7585C123.73 86.894 120.377 90.2465 116.242 90.2465H115.41C111.734 90.2465 108.754 87.2665 108.754 83.5905V77.3958C108.754 77.1411 108.96 76.9345 109.215 76.9345C109.506 76.9345 109.725 77.201 109.66 77.4847C109.03 80.2419 107.875 82.6612 106.194 84.7425C104.487 86.8759 102.311 88.5398 99.6656 89.7345C97.0203 90.9292 93.9909 91.5265 90.5776 91.5265Z" fill="url(#paint1_linear_27_18)"/>
<path d="M136.321 90.2401C131.833 90.2401 128.193 86.6011 128.193 82.1121V35.456C128.193 31.1438 131.689 27.6481 136.001 27.6481H136.257C140.428 27.6481 143.809 31.0292 143.809 35.2001V42.1857C143.809 42.4985 143.556 42.7521 143.243 42.7521C142.878 42.7521 142.609 42.4115 142.7 42.0585C143.941 37.2801 146.231 33.6286 149.569 31.1041C153.068 28.3734 156.429 28.0747 162.231 27.6481H163.127C166.256 27.6481 168.863 30.0472 169.122 33.1658L169.36 36.0292C169.523 37.9947 167.972 39.6801 166 39.6801L160.193 40.4481C154.988 40.9601 151.063 42.5814 148.417 45.3121C145.772 47.9574 144.449 51.7121 144.449 56.5761V82.1121C144.449 86.6011 140.81 90.2401 136.321 90.2401Z" fill="url(#paint2_linear_27_18)"/>
<path d="M199.095 91.5201C190.733 91.5201 184.503 89.4294 180.407 85.2481C176.311 81.0667 174.263 74.9654 174.263 66.9441V44.6801C174.263 41.9187 172.025 39.6801 169.263 39.6801H166.5C165.104 39.8277 163.842 38.8453 163.642 37.4562L162.231 27.6481H169.591C172.172 27.6481 174.263 25.5563 174.263 22.9761V16.9601C174.263 12.5418 177.845 8.96007 182.263 8.96007C186.682 8.96007 190.263 12.5418 190.263 16.9601V22.9761C190.263 25.5563 192.355 27.6481 194.935 27.6481H211.716L216.932 39.6801C216.854 39.5012 216.677 39.3863 216.482 39.3885L195.208 39.6251C192.468 39.6556 190.263 41.885 190.263 44.6248V66.0481C190.263 70.1441 191.159 73.2161 192.951 75.2641C194.743 77.3121 197.645 78.3361 201.655 78.3361C202.85 78.3361 204.087 78.2081 205.367 77.9521C207.527 77.3761 209.712 78.7523 210.164 80.9414L210.762 83.8348C211.36 86.732 209.995 89.7235 207.13 90.4586C206.727 90.562 206.31 90.6598 205.879 90.7521C203.575 91.2641 201.314 91.5201 199.095 91.5201Z" fill="url(#paint3_linear_27_18)"/>
<path d="M234.119 113.28C230.399 113.28 227.922 109.438 229.458 106.05L237.891 87.4491C238.203 86.7588 239.236 86.982 239.236 87.7399C239.236 88.5043 238.19 88.7214 237.886 88.0201L211.716 27.6481H218.595C224.723 27.6481 230.236 31.3764 232.517 37.0645L247.484 74.3846C247.825 75.2346 247.199 76.1601 246.283 76.1601C245.364 76.1601 244.738 75.2276 245.086 74.3764L262.336 32.1973C263.461 29.4458 266.139 27.6481 269.112 27.6481C274.396 27.6481 277.939 33.0758 275.813 37.9135L244.66 108.803C243.464 111.523 240.774 113.28 237.802 113.28H234.119Z" fill="url(#paint4_linear_27_18)"/>
<path d="M291.164 80.2405C291.164 86.3156 286.239 91.2405 280.164 91.2405C274.089 91.2405 269.164 86.3156 269.164 80.2405C269.164 74.1654 274.089 69.2405 280.164 69.2405C286.239 69.2405 291.164 74.1654 291.164 80.2405Z" fill="url(#paint5_linear_27_18)"/>
<defs>
<linearGradient id="paint0_linear_27_18" x1="146" y1="17" x2="466.5" y2="17" gradientUnits="userSpaceOnUse">
<stop stop-color="#705BE3"/>
<stop offset="1" stop-color="#3E327D"/>
</linearGradient>
<linearGradient id="paint1_linear_27_18" x1="146" y1="17" x2="466.5" y2="17" gradientUnits="userSpaceOnUse">
<stop stop-color="#705BE3"/>
<stop offset="1" stop-color="#3E327D"/>
</linearGradient>
<linearGradient id="paint2_linear_27_18" x1="146" y1="17" x2="466.5" y2="17" gradientUnits="userSpaceOnUse">
<stop stop-color="#705BE3"/>
<stop offset="1" stop-color="#3E327D"/>
</linearGradient>
<linearGradient id="paint3_linear_27_18" x1="146" y1="17" x2="466.5" y2="17" gradientUnits="userSpaceOnUse">
<stop stop-color="#705BE3"/>
<stop offset="1" stop-color="#3E327D"/>
</linearGradient>
<linearGradient id="paint4_linear_27_18" x1="146" y1="17" x2="466.5" y2="17" gradientUnits="userSpaceOnUse">
<stop stop-color="#705BE3"/>
<stop offset="1" stop-color="#3E327D"/>
</linearGradient>
<linearGradient id="paint5_linear_27_18" x1="146" y1="17" x2="466.5" y2="17" gradientUnits="userSpaceOnUse">
<stop stop-color="#705BE3"/>
<stop offset="1" stop-color="#3E327D"/>
</linearGradient>
</defs>
</svg>
